# This file uses centimeters as units for non-parametric coordinates.

mtllib RockSm2.mtl
g default
v 1.924588 0.908398 -1.694360
v 1.918123 1.348453 1.252862
v 2.330132 2.504326 -1.374415
v 2.039266 2.600687 1.444619
v 3.725486 2.196650 -1.678931
v 3.141042 1.457147 0.608618
v 3.164897 1.018265 -1.343116
v 3.089611 0.869260 0.292141
v 2.990566 0.775972 0.120649
v 1.640970 1.097600 0.075124
v 1.823048 2.672318 0.203954
v 3.090276 1.691361 0.165324
v 3.047877 0.897416 -0.261242
v 1.517846 0.810381 -0.854119
v 1.839501 2.666867 -0.830836
v 3.369184 2.054955 -0.488497
v 3.325014 0.957447 -1.516456
v 1.687683 1.671142 -1.650129
v 1.417181 1.498541 -0.936235
v 1.371506 1.809508 0.057053
v 1.776618 1.806239 1.140666
v 3.108210 1.001294 0.429606
v 3.369109 1.204891 -0.102954
v 3.214190 1.050018 -0.577106
v 3.630784 1.696765 -1.487353
v 2.072255 2.049276 -2.017566
v 2.059636 1.953395 -0.791370
v 1.691001 2.259371 0.403068
v 1.885687 2.165761 1.368968
v 3.198428 1.092909 1.015691
v 3.351285 1.385310 -0.041071
v 3.357829 1.309005 -0.295015
v 2.343448 0.956515 0.853832
v 2.212323 0.452878 0.289374
v 2.139679 0.753316 -0.758480
v 2.465295 0.975031 -1.691691
v 2.442962 1.654303 -2.211077
v 2.841166 2.225213 -1.855513
v 2.778294 2.572948 -1.648725
v 2.668934 2.893030 -0.701703
v 2.567736 2.849277 0.064502
v 2.664127 2.393677 1.455644
v 2.300009 2.028500 1.921698
v 2.317614 0.935183 1.232482
v 2.817138 0.819063 0.643527
v 2.888759 0.594664 0.489492
v 2.822547 0.686577 -0.412813
v 2.956818 0.907453 -1.367938
v 3.067521 1.725849 -1.956475
v 3.242250 2.253268 -1.956475
v 3.467077 2.556370 -1.684934
v 2.966662 2.607044 -0.797690
v 2.774938 2.064566 0.159810
v 2.813913 2.022490 0.825430
v 3.010171 1.038496 1.205015
v 2.894502 0.817570 0.981043
vt 0.590443 0.564094
vt 0.617511 0.201206
vt 0.864006 0.497398
vt 0.848987 0.172342
vt 0.523810 0.431957
vt 0.197828 0.452658
vt 0.395097 0.207697
vt 0.081420 0.233139
vt 0.281336 0.697042
vt 0.148309 0.954965
vt 0.871331 0.961479
vt 0.699366 0.896361
vt 0.649126 0.945561
vt 0.574337 0.693782
vt 0.148275 0.247245
vt 0.570730 0.332246
vt 0.202019 0.855877
vt 0.829751 0.307945
vt 0.262108 0.473485
vt 0.281726 0.167985
vt 0.552767 0.451315
vt 0.210503 0.762034
vt 0.828664 0.406876
vt 0.394027 0.444736
vt 0.676210 0.913815
vt 0.404963 0.245223
vt 0.710890 0.560313
vt 0.652584 0.433980
vt 0.687938 0.326618
vt 0.693185 0.195886
vt 0.079449 0.247546
vt 0.860672 0.957796
vt 0.189347 0.282493
vt 0.291158 0.267421
vt 0.628373 0.776223
vt 0.467117 0.354969
vt 0.772078 0.545239
vt 0.765370 0.391513
vt 0.720316 0.291199
vt 0.769955 0.146555
vt 0.105165 0.346020
vt 0.780491 0.980208
vt 0.187148 0.343815
vt 0.297174 0.370861
vt 0.072670 0.017282
vt 0.538753 0.085862
vt 0.319097 0.892537
vt 0.342863 0.014058
vt 0.475214 0.987840
vt 0.385753 0.693554
vt 0.435446 0.910305
vt 0.413746 0.794309
vt 0.908293 0.568210
vt 0.922362 0.549067
vt 0.948333 0.440544
vt 0.964151 0.332105
vt 0.962760 0.171091
vt 0.846354 0.053521
vt 0.757802 0.083824
vt 0.577964 0.075526
vt 0.081608 0.104471
vt 0.896190 0.822925
vt 0.163821 0.123511
vt 0.284681 0.127779
vt 0.615884 0.972624
vt 0.404550 0.168969
vt 0.512200 0.853122
vt 0.483261 0.751227
vt 0.486761 0.670653
vt 0.533060 0.516457
vt 0.437378 0.539377
vt 0.264398 0.600016
vt 0.163694 0.575322
vt 0.661110 0.789151
vt 0.811187 0.864415
vt 0.871172 0.851263
vt 0.296075 0.790245
vt 0.177739 0.009043
vt 0.855580 0.727934
vt 0.270988 0.961779
vt 0.895925 0.731310
vt 0.682714 0.637558
vt 0.180868 0.729945
vt 0.574007 0.654452
vt 0.302674 0.624604
vt 0.400916 0.645879
vt 0.360880 0.741113
vt 0.516724 0.646415
vt 0.869366 0.615674
vt 0.770536 0.653413
vt 0.700099 0.627547
vt 0.493028 0.082082
vn -0.825172 0.551976 -0.120061
vn -0.833751 0.510565 -0.210199
vn -0.979813 -0.008898 -0.199717
vn -0.945661 0.172830 -0.275416
vn 0.643743 0.726875 0.239265
vn 0.649403 0.724860 0.229899
vn 0.648119 0.630929 0.426463
vn 0.710843 0.626064 0.320539
vn 0.967046 -0.003641 0.254575
vn 0.962513 0.027534 0.269836
vn 0.967837 -0.171048 0.184482
vn 0.967591 -0.134121 0.213963
vn 0.609921 -0.790384 -0.057352
vn 0.654632 -0.751840 -0.078701
vn 0.295243 -0.939671 -0.172772
vn 0.209634 -0.960908 -0.180856
vn 0.619048 -0.299553 0.725981
vn 0.904690 0.029547 0.425045
vn 0.780589 0.418000 0.464711
vn 0.887893 0.176755 0.424739
vn 0.598329 -0.199794 -0.775941
vn 0.321556 0.148261 -0.935211
vn 0.268839 0.214401 -0.939020
vn 0.485743 -0.106897 -0.867541
vn 0.777965 -0.627981 -0.020256
vn 0.859511 -0.400100 0.318057
vn 0.128089 -0.703042 0.699518
vn 0.334339 -0.736248 0.588350
vn -0.998362 0.043556 -0.037106
vn -0.937834 0.347061 0.004008
vn -0.919621 0.317164 0.231741
vn -0.920136 0.338612 0.196704
vn 0.725730 0.612001 0.314276
vn 0.848981 0.475268 0.230979
vn 0.933697 0.357329 0.022935
vn 0.830456 0.552608 0.070478
vn 0.960489 0.120552 0.250855
vn 0.893184 0.339338 0.295080
vn 0.852712 0.472036 0.223749
vn 0.982410 0.042305 0.181882
vn -0.203524 -0.657137 -0.725775
vn 0.265012 -0.601892 -0.753323
vn 0.444743 -0.271535 -0.853506
vn 0.368938 -0.414397 -0.831962
vn -0.880785 -0.215929 -0.421418
vn -0.956993 -0.239848 -0.163209
vn -0.961424 0.204422 -0.184051
vn -0.859309 0.479965 -0.176694
vn -0.955914 0.293508 -0.009079
vn -0.942584 -0.265274 0.202895
vn -0.949669 -0.056708 0.308080
vn -0.908531 -0.285205 0.305336
vn 0.187225 -0.793343 0.579270
vn 0.063140 -0.997490 0.032032
vn 0.581654 -0.806734 0.104204
vn 0.619162 -0.777330 0.111340
vn 0.757637 -0.652575 0.011494
vn 0.864543 -0.502433 0.011237
vn 0.869997 -0.484177 0.093153
vn 0.819250 -0.564673 0.099866
vn 0.654812 -0.754585 -0.042689
vn 0.808828 -0.584187 0.067255
vn 0.856603 -0.507129 0.095137
vn 0.298739 -0.954118 0.020327
vn -0.497109 -0.789821 0.359257
vn -0.496823 -0.700679 0.512071
vn -0.610955 -0.664181 0.430811
vn -0.574274 -0.785050 0.232176
vn -0.194841 -0.974952 -0.107269
vn -0.319612 -0.946722 -0.039579
vn 0.018602 -0.978766 -0.204135
vn 0.022354 -0.985459 -0.168435
vn -0.057052 -0.246805 -0.967384
vn 0.065826 -0.511307 -0.856873
vn -0.359285 -0.349692 -0.865234
vn -0.345427 -0.201198 -0.916624
vn -0.092029 0.495964 -0.863452
vn -0.260234 0.377553 -0.888669
vn -0.176733 0.698298 -0.693647
vn -0.207193 0.734495 -0.646210
vn -0.248844 0.887624 -0.387557
vn -0.252465 0.961303 -0.110264
vn 0.188972 0.981580 -0.028105
vn 0.063261 0.971189 -0.229761
vn 0.330641 0.931487 0.151688
vn -0.089030 0.989882 0.110484
vn 0.501051 0.853602 0.142515
vn 0.039500 0.980646 0.191761
vn -0.674693 -0.078323 0.733931
vn 0.139281 -0.031140 0.989763
vn 0.775140 0.267033 0.572583
vn -0.249848 0.550381 0.796653
vn -0.737729 -0.329836 0.589037
vn -0.212008 -0.649725 0.730007
vn -0.566472 -0.576617 0.588747
vn -0.327607 -0.937160 0.120020
vn 0.135706 -0.969374 -0.204691
vn 0.135706 -0.969374 -0.204691
vn 0.135706 -0.969374 -0.204691
vn 0.135706 -0.969374 -0.204691
s 1
g pasted__pCube2 group
usemtl pasted__lambert3SG
f 26/37/1 27/38/2 15/23/3 3/3/4
s 2
f 51/70/5 52/71/6 16/24/7 5/5/8
s 3
f 5/5/9 16/24/10 32/44/11 25/36/12
s 4
f 7/7/13 13/20/14 47/64/15 48/66/16
s 5
f 55/75/17 30/42/18 6/12/19 54/74/20
s 6
f 25/35/21 50/68/22 51/69/23 5/14/24
s 4
f 9/15/25 8/8/26 45/61/27 46/63/28
s 1
f 11/18/29 28/39/30 29/40/31 4/4/32
s 2
f 12/19/33 53/72/34 54/73/35 6/6/36
s 3
f 31/43/37 12/19/38 6/6/39 30/41/40
s 4
f 13/20/14 9/15/25 46/63/28 47/64/15
s 1
f 15/23/3 27/38/2 28/39/30 11/18/29
s 2
f 16/24/7 52/71/6 53/72/34 12/19/33
s 3
f 32/44/11 16/24/10 12/19/38 31/43/37
s 6
f 7/13/41 48/65/42 49/67/43 17/25/44
s 1
f 1/1/45 14/21/46 19/28/47 18/27/48
f 20/29/49 19/28/47 14/21/46 10/16/50
f 21/30/51 20/29/49 10/16/50 2/2/52
s 5
f 56/76/53 45/62/54 8/11/55 22/32/56
s 3
f 9/15/57 23/33/58 22/31/59 8/8/60
f 13/20/61 24/34/62 23/33/58 9/15/57
f 17/26/63 24/34/62 13/20/61 7/7/64
s 6
f 17/25/44 49/67/43 50/68/22 25/35/21
s 1
f 18/27/48 19/28/47 27/38/2 26/37/1
f 28/39/30 27/38/2 19/28/47 20/29/49
f 29/40/31 28/39/30 20/29/49 21/30/51
s 5
f 56/76/53 22/32/56 30/42/18 55/75/17
s 3
f 23/33/58 31/43/37 30/41/40 22/31/59
f 24/34/62 32/44/11 31/43/37 23/33/58
f 25/36/12 32/44/11 24/34/62 17/26/63
s 4
f 34/47/65 33/80/66 2/10/67 10/17/68
f 35/77/69 34/47/65 10/17/68 14/22/70
f 36/50/71 35/77/69 14/22/70 1/9/72
s 6
f 37/90/73 36/91/74 1/1/75 18/27/76
f 38/89/77 37/90/73 18/27/76 26/37/78
f 39/53/79 38/89/77 26/37/78 3/3/80
s 2
f 3/3/81 15/23/82 40/55/83 39/54/84
f 41/56/85 40/55/83 15/23/82 11/18/86
f 42/57/87 41/56/85 11/18/86 4/4/88
s 5
f 29/40/89 43/59/90 42/58/91 4/4/92
f 21/30/93 44/60/94 43/59/90 29/40/89
f 2/2/95 33/46/96 44/60/94 21/30/93
s 4
f 46/63/28 45/61/27 33/45/66 34/78/65
f 48/66/16 47/64/15 35/48/69 36/92/71
s 6
f 49/67/43 48/65/42 36/49/74 37/51/73
f 50/68/22 49/67/43 37/51/73 38/52/77
f 51/69/23 50/68/22 38/52/77 39/87/79
s 2
f 39/88/84 40/86/83 52/71/6 51/70/5
f 53/72/34 52/71/6 40/86/83 41/85/85
f 54/73/35 53/72/34 41/85/85 42/83/87
s 5
f 43/82/90 55/75/17 54/74/20 42/84/91
f 44/79/94 56/76/53 55/75/17 43/82/90
f 44/79/94 33/81/96 45/62/54 56/76/53
s off
f 35/48/97 47/64/98 46/63/99 34/47/100
