# This file uses centimeters as units for non-parametric coordinates.

mtllib Platform 1.mtl
g default
v -60.000000 -0.500000 12.500000
v 60.000000 -0.500000 12.500000
v -60.000000 0.500000 12.500000
v 60.000000 0.500000 12.500000
v -60.000000 0.500000 -12.500000
v 60.000000 0.500000 -12.500000
v -60.000000 -0.500000 -12.500000
v 60.000000 -0.500000 -12.500000
v -2.000000 -0.500000 12.500000
v -2.000000 -0.500000 -12.500000
v -2.000000 0.500000 -12.500000
v -2.000000 0.500000 12.500000
v 2.000000 -0.500000 12.500000
v 2.000000 0.500000 12.500000
v 2.000000 0.500000 -12.500000
v 2.000000 -0.500000 -12.500000
v -60.000000 0.500000 4.000000
v -2.000000 0.500000 4.000000
v 2.000000 0.500000 4.000000
v 60.000000 0.500000 4.000000
v 60.000000 -0.500000 4.000000
v 2.000000 -0.500000 4.000000
v -2.000000 -0.500000 4.000000
v -60.000000 -0.500000 4.000000
v 33.888283 -0.500000 12.500000
v 33.888283 -0.500000 4.000000
v 33.888283 -0.500000 -12.500000
v 33.888283 0.500000 -12.500000
v 33.888283 0.500000 4.000000
v 33.888283 0.500000 12.500000
v 39.666260 -0.500000 4.000000
v 39.666256 -0.500000 12.500000
v 39.666256 0.500000 12.500000
v 39.666256 0.500000 4.000000
v 39.666256 0.500000 -12.500000
v 39.666256 -0.500000 -12.500000
vt 0.008336 0.414611
vt 0.987461 0.420758
vt 0.008533 0.000000
vt 0.991610 0.004241
vt 0.009007 0.202874
vt 0.991547 0.207569
vt 0.009000 0.211008
vt 0.991872 0.215798
vt 1.000000 0.216069
vt 0.000870 0.210985
vt 0.479519 0.414460
vt 0.478984 0.211614
vt 0.479673 0.203493
vt 0.482364 0.000286
vt 0.513529 0.414601
vt 0.515408 0.000363
vt 0.511740 0.215985
vt 0.516910 0.211808
vt 0.000000 0.345436
vt 0.008791 0.069043
vt 0.483486 0.340416
vt 0.510973 0.341395
vt 0.991190 0.073412
vt 0.997190 0.352001
vt 0.989067 0.351799
vt 0.516322 0.345930
vt 0.478474 0.345341
vt 0.008125 0.345470
vt 0.773803 0.418052
vt 0.773054 0.348593
vt 0.774591 0.213773
vt 0.775229 0.205649
vt 0.778298 0.343592
vt 0.773675 0.426179
vt 0.825467 0.348953
vt 0.823011 0.417993
vt 0.824817 0.002635
vt 0.819907 0.344385
vt 0.826112 0.206336
vt 0.826701 0.214435
vt 0.821345 0.218697
vt 0.824496 0.071696
vt 0.822936 0.426127
vt 0.995592 0.420889
vt 0.987401 0.428882
vt 0.780145 0.218911
vt 0.776869 0.071566
vt 0.777204 0.002431
vt 0.482256 0.069373
vt 0.515364 0.069491
vt 0.516212 0.203726
vt 0.513353 0.422728
vt 0.484454 0.216657
vt 0.479438 0.422589
vt 0.008262 0.422738
vt 0.000199 0.414570
vn 0.000000 0.000000 1.000000
vn 0.000000 0.000000 1.000000
vn 0.000000 0.000000 1.000000
vn 0.000000 0.000000 1.000000
vn 1.000000 0.000000 0.000000
vn 1.000000 0.000000 0.000000
vn 1.000000 0.000000 0.000000
vn 1.000000 0.000000 0.000000
vn -1.000000 0.000000 0.000000
vn -1.000000 0.000000 0.000000
vn -1.000000 0.000000 0.000000
vn -1.000000 0.000000 0.000000
vn 0.000000 -1.000000 0.000000
vn 0.000000 -1.000000 0.000000
vn 0.000000 -1.000000 0.000000
vn 0.000000 -1.000000 0.000000
vn 0.000000 0.000000 -1.000000
vn 0.000000 0.000000 -1.000000
vn 0.000000 0.000000 -1.000000
vn 0.000000 0.000000 -1.000000
vn 0.000000 1.000000 0.000000
vn 0.000000 1.000000 0.000000
vn 0.000000 1.000000 0.000000
vn 0.000000 1.000000 0.000000
vn 0.000000 0.000000 1.000000
vn 0.000000 0.000000 1.000000
vn 0.000000 0.000000 1.000000
vn 0.000000 0.000000 1.000000
vn 0.000000 0.000000 1.000000
vn 0.000000 0.000000 1.000000
vn 0.000000 1.000000 0.000000
vn 0.000000 1.000000 0.000000
vn 0.000000 1.000000 0.000000
vn 0.000000 1.000000 0.000000
vn 0.000000 1.000000 0.000000
vn 0.000000 1.000000 0.000000
vn 0.000000 1.000000 0.000000
vn 0.000000 1.000000 0.000000
vn 1.000000 0.000000 0.000000
vn 1.000000 0.000000 0.000000
vn 0.000000 -1.000000 0.000000
vn 0.000000 -1.000000 0.000000
vn 0.000000 -1.000000 0.000000
vn 0.000000 -1.000000 0.000000
vn 0.000000 -1.000000 0.000000
vn 0.000000 -1.000000 0.000000
vn 0.000000 -1.000000 0.000000
vn 0.000000 -1.000000 0.000000
vn -1.000000 0.000000 0.000000
vn -1.000000 0.000000 0.000000
vn 1.000000 0.000000 0.000000
vn 1.000000 0.000000 0.000000
vn 1.000000 0.000000 0.000000
vn 1.000000 0.000000 0.000000
vn 0.000000 0.000000 -1.000000
vn 0.000000 0.000000 -1.000000
vn 0.000000 0.000000 -1.000000
vn 0.000000 0.000000 -1.000000
vn -1.000000 0.000000 0.000000
vn -1.000000 0.000000 0.000000
vn -1.000000 0.000000 0.000000
vn -1.000000 0.000000 0.000000
vn 0.000000 -1.000000 0.000000
vn 0.000000 -1.000000 0.000000
vn 0.000000 0.000000 -1.000000
vn 0.000000 0.000000 -1.000000
vn 0.000000 0.000000 -1.000000
vn 0.000000 0.000000 -1.000000
vn 0.000000 1.000000 0.000000
vn 0.000000 1.000000 0.000000
vn 0.000000 -1.000000 0.000000
vn 0.000000 -1.000000 0.000000
vn 0.000000 0.000000 1.000000
vn 0.000000 0.000000 1.000000
vn 0.000000 1.000000 0.000000
vn 0.000000 1.000000 0.000000
vn 0.000000 1.000000 0.000000
vn 0.000000 1.000000 0.000000
vn 0.000000 0.000000 -1.000000
vn 0.000000 0.000000 -1.000000
vn 0.000000 0.000000 -1.000000
vn 0.000000 0.000000 -1.000000
vn 0.000000 -1.000000 0.000000
vn 0.000000 -1.000000 0.000000
vn 0.000000 0.000000 -1.000000
vn 0.000000 0.000000 -1.000000
vn 0.000000 0.000000 -1.000000
vn 0.000000 0.000000 -1.000000
vn 1.000000 0.000000 0.000000
vn 1.000000 0.000000 0.000000
vn 1.000000 0.000000 0.000000
vn 1.000000 0.000000 0.000000
vn -1.000000 -0.000004 0.000000
vn -1.000000 -0.000004 0.000000
vn -1.000000 -0.000004 0.000000
vn -1.000000 -0.000004 0.000000
s 1
g pCube1
usemtl lambert2SG
f 12/54/1 9/11/2 13/15/3 14/52/4
s 2
f 20/24/5 21/25/6 8/8/7 6/9/8
s 3
f 7/7/9 24/28/10 17/19/11 5/10/12
s 4
f 7/7/13 10/12/14 23/27/15 24/28/16
s off
f 5/5/17 11/13/18 10/12/19 7/7/20
s 5
f 17/20/21 18/49/22 11/13/23 5/5/24
s 1
f 1/1/25 9/11/2 12/54/1 3/55/26
f 30/34/27 25/29/28 32/36/29 33/43/30
s 5
f 3/3/31 12/14/32 18/49/22 17/20/21
f 19/50/33 18/49/22 12/14/32 14/16/34
f 33/37/35 34/42/36 29/47/37 30/48/38
s 2
f 2/2/39 21/25/6 20/24/5 4/44/40
s 4
f 25/29/41 26/30/42 31/35/43 32/36/44
f 9/11/45 23/27/15 22/26/46 13/15/47
f 24/28/16 23/27/15 9/11/45 1/1/48
s 3
f 17/19/11 24/28/10 1/1/49 3/56/50
s off
f 11/53/51 18/21/52 23/27/53 10/12/54
f 18/21/55 19/22/56 22/26/57 23/27/58
f 16/18/59 22/26/60 19/22/61 15/17/62
s 4
f 13/15/47 22/26/46 26/30/42 25/29/41
f 27/31/63 26/30/42 22/26/46 16/18/64
s off
f 16/18/65 15/51/66 28/32/67 27/31/68
s 5
f 15/51/69 19/50/33 29/47/37 28/32/70
f 30/48/38 29/47/37 19/50/33 14/16/34
s 1
f 14/52/4 13/15/3 25/29/28 30/34/27
s 4
f 32/36/44 31/35/43 21/25/71 2/2/72
s 1
f 33/43/30 32/36/29 2/2/73 4/45/74
s 5
f 20/23/75 34/42/36 33/37/35 4/4/76
f 35/39/77 34/42/36 20/23/75 6/6/78
s off
f 36/40/79 35/39/80 6/6/81 8/8/82
s 4
f 21/25/71 31/35/43 36/40/83 8/8/84
s off
f 29/33/85 34/38/86 31/35/87 26/30/88
f 26/30/89 27/31/90 28/46/91 29/33/92
f 34/38/93 35/41/94 36/40/95 31/35/96
