# Export of Temple Scene
# from Aaro4130 OBJ Exporter v2.0
g Moving Platform 1
v -845.4274 -262.98 6.7
v -836.1326 -262.98 6.7
v -845.4274 -260.98 6.7
v -836.1326 -260.98 6.7
v -845.4274 -260.98 -3.3
v -836.1326 -260.98 -3.3
v -845.4274 -262.98 -3.3
v -836.1326 -262.98 -3.3
v -845.4274 -260.98 6.7
v -836.1326 -260.98 6.7
v -845.4274 -260.98 -3.3
v -836.1326 -260.98 -3.3
v -845.4274 -262.98 -3.3
v -845.4274 -262.98 6.7
v -836.1326 -262.98 6.7
v -836.1326 -262.98 -3.3
v -836.1326 -262.98 6.7
v -836.1326 -260.98 6.7
v -836.1326 -260.98 -3.3
v -836.1326 -262.98 -3.3
v -845.4274 -262.98 -3.3
v -845.4274 -260.98 -3.3
v -845.4274 -260.98 6.7
v -845.4274 -262.98 6.7
vn 0 0 0.7247249
vn 0 0 0.7247249
vn 0 0 0.7247249
vn 0 0 0.7247249
vn 0 0.144945 0
vn 0 0.144945 0
vn 0 0 -0.7247249
vn 0 0 -0.7247249
vn 0 0.144945 0
vn 0 0.144945 0
vn 0 0 -0.7247249
vn 0 0 -0.7247249
vn 0 -0.144945 0
vn 0 -0.144945 0
vn 0 -0.144945 0
vn 0 -0.144945 0
vn 0.6736206 0 0
vn 0.6736206 0 0
vn 0.6736206 0 0
vn 0.6736206 0 0
vn -0.6736206 0 0
vn -0.6736206 0 0
vn -0.6736206 0 0
vn -0.6736206 0 0
vt 0 0
vt 1 0
vt 0 1
vt 1 1
vt 0 1
vt 1 1
vt 0 1
vt 1 1
vt 0 0
vt 1 0
vt 0 0
vt 1 0
vt 0 0
vt 0 1
vt 1 1
vt 1 0
vt 0 0
vt 0 1
vt 1 1
vt 1 0
vt 0 0
vt 0 1
vt 1 1
vt 1 0
usemtl TestTexture-2-1024 (1)
f 4/4/4 3/3/3 1/1/1
f 2/2/2 4/4/4 1/1/1
f 6/6/6 5/5/5 9/9/9
f 10/10/10 6/6/6 9/9/9
f 8/8/8 7/7/7 11/11/11
f 12/12/12 8/8/8 11/11/11
f 15/15/15 14/14/14 13/13/13
f 16/16/16 15/15/15 13/13/13
f 19/19/19 18/18/18 17/17/17
f 20/20/20 19/19/19 17/17/17
f 23/23/23 22/22/22 21/21/21
f 24/24/24 23/23/23 21/21/21
