# Export of Temple Scene
# from Aaro4130 OBJ Exporter v2.0
g GroundCube (56)
v 469.6409 -236.3205 18.07273
v 503.4427 -228.5815 18.07273
v 463.1688 -208.0523 18.07273
v 496.9706 -200.3133 18.07273
v 463.1688 -208.0523 -15.00649
v 496.9706 -200.3133 -15.00649
v 469.6409 -236.3205 -15.00649
v 503.4427 -228.5815 -15.00649
v 463.1688 -208.0523 18.07273
v 496.9706 -200.3133 18.07273
v 463.1688 -208.0523 -15.00649
v 496.9706 -200.3133 -15.00649
v 469.6409 -236.3205 -15.00649
v 469.6409 -236.3205 18.07273
v 503.4427 -228.5815 18.07273
v 503.4427 -228.5815 -15.00649
v 503.4427 -228.5815 18.07273
v 496.9706 -200.3133 18.07273
v 496.9706 -200.3133 -15.00649
v 503.4427 -228.5815 -15.00649
v 469.6409 -236.3205 -15.00649
v 463.1688 -208.0523 -15.00649
v 463.1688 -208.0523 18.07273
v 469.6409 -236.3205 18.07273
vn 0 0 0.590543
vn 0 0 0.590543
vn 0 0 0.590543
vn 0 0 0.590543
vn -0.1155426 0.5046545 0
vn -0.1155426 0.5046545 0
vn 0 0 -0.590543
vn 0 0 -0.590543
vn -0.1155426 0.5046545 0
vn -0.1155426 0.5046545 0
vn 0 0 -0.590543
vn 0 0 -0.590543
vn 0.1155426 -0.5046545 0
vn 0.1155426 -0.5046545 0
vn 0.1155426 -0.5046545 0
vn 0.1155426 -0.5046545 0
vn 0.6034438 0.1381609 0
vn 0.6034438 0.1381609 0
vn 0.6034438 0.1381609 0
vn 0.6034438 0.1381609 0
vn -0.6034438 -0.1381609 0
vn -0.6034438 -0.1381609 0
vn -0.6034438 -0.1381609 0
vn -0.6034438 -0.1381609 0
vt 0 0
vt 1 0
vt 0 1
vt 1 1
vt 0 1
vt 1 1
vt 0 1
vt 1 1
vt 0 0
vt 1 0
vt 0 0
vt 1 0
vt 0 0
vt 0 1
vt 1 1
vt 1 0
vt 0 0
vt 0 1
vt 1 1
vt 1 0
vt 0 0
vt 0 1
vt 1 1
vt 1 0
usemtl Dark Brown
f 4/4/4 3/3/3 1/1/1
f 2/2/2 4/4/4 1/1/1
f 6/6/6 5/5/5 9/9/9
f 10/10/10 6/6/6 9/9/9
f 8/8/8 7/7/7 11/11/11
f 12/12/12 8/8/8 11/11/11
f 15/15/15 14/14/14 13/13/13
f 16/16/16 15/15/15 13/13/13
f 19/19/19 18/18/18 17/17/17
f 20/20/20 19/19/19 17/17/17
f 23/23/23 22/22/22 21/21/21
f 24/24/24 23/23/23 21/21/21
g GroundCube (57)
v -230.5697 -248.1798 7.294665
v -222.9754 -248.1798 7.294665
v -230.5697 -219.1802 7.294665
v -222.9754 -219.1802 7.294665
v -230.5697 -219.1802 -16.62842
v -222.9754 -219.1802 -16.62842
v -230.5697 -248.1798 -16.62842
v -222.9754 -248.1798 -16.62842
v -230.5697 -219.1802 7.294665
v -222.9754 -219.1802 7.294665
v -230.5697 -219.1802 -16.62842
v -222.9754 -219.1802 -16.62842
v -230.5697 -248.1798 -16.62842
v -230.5697 -248.1798 7.294665
v -222.9754 -248.1798 7.294665
v -222.9754 -248.1798 -16.62842
v -222.9754 -248.1798 7.294665
v -222.9754 -219.1802 7.294665
v -222.9754 -219.1802 -16.62842
v -222.9754 -248.1798 -16.62842
v -230.5697 -248.1798 -16.62842
v -230.5697 -219.1802 -16.62842
v -230.5697 -219.1802 7.294665
v -230.5697 -248.1798 7.294665
vn 0 0 0.6237577
vn 0 0 0.6237577
vn 0 0 0.6237577
vn 0 0 0.6237577
vn 0 0.7561204 0
vn 0 0.7561204 0
vn 0 0 -0.6237577
vn 0 0 -0.6237577
vn 0 0.7561204 0
vn 0 0.7561204 0
vn 0 0 -0.6237577
vn 0 0 -0.6237577
vn 0 -0.7561204 0
vn 0 -0.7561204 0
vn 0 -0.7561204 0
vn 0 -0.7561204 0
vn 0.1980107 0 0
vn 0.1980107 0 0
vn 0.1980107 0 0
vn 0.1980107 0 0
vn -0.1980107 0 0
vn -0.1980107 0 0
vn -0.1980107 0 0
vn -0.1980107 0 0
vt 0 0
vt 1 0
vt 0 1
vt 1 1
vt 0 1
vt 1 1
vt 0 1
vt 1 1
vt 0 0
vt 1 0
vt 0 0
vt 1 0
vt 0 0
vt 0 1
vt 1 1
vt 1 0
vt 0 0
vt 0 1
vt 1 1
vt 1 0
vt 0 0
vt 0 1
vt 1 1
vt 1 0
usemtl Dark Brown
f 28/28/28 27/27/27 25/25/25
f 26/26/26 28/28/28 25/25/25
f 30/30/30 29/29/29 33/33/33
f 34/34/34 30/30/30 33/33/33
f 32/32/32 31/31/31 35/35/35
f 36/36/36 32/32/32 35/35/35
f 39/39/39 38/38/38 37/37/37
f 40/40/40 39/39/39 37/37/37
f 43/43/43 42/42/42 41/41/41
f 44/44/44 43/43/43 41/41/41
f 47/47/47 46/46/46 45/45/45
f 48/48/48 47/47/47 45/45/45
g GroundCube (22)
v 217.9623 -207.5894 1.115223
v 226.4507 -203.3689 1.115223
v 217.8208 -207.3049 1.115223
v 226.3092 -203.0843 1.115223
v 217.8208 -207.3049 -1.271786
v 226.3092 -203.0843 -1.271786
v 217.9623 -207.5894 -1.271786
v 226.4507 -203.3689 -1.271786
v 217.8208 -207.3049 1.115223
v 226.3092 -203.0843 1.115223
v 217.8208 -207.3049 -1.271786
v 226.3092 -203.0843 -1.271786
v 217.9623 -207.5894 -1.271786
v 217.9623 -207.5894 1.115223
v 226.4507 -203.3689 1.115223
v 226.4507 -203.3689 -1.271786
v 226.4507 -203.3689 1.115223
v 226.3092 -203.0843 1.115223
v 226.3092 -203.0843 -1.271786
v 226.4507 -203.3689 -1.271786
v 217.9623 -207.5894 -1.271786
v 217.8208 -207.3049 -1.271786
v 217.8208 -207.3049 1.115223
v 217.9623 -207.5894 1.115223
vn 0 0 0.2440487
vn 0 0 0.2440487
vn 0 0 0.2440487
vn 0 0 0.2440487
vn -0.014465 0.02909233 0
vn -0.014465 0.02909233 0
vn 0 0 -0.2440487
vn 0 0 -0.2440487
vn -0.014465 0.02909233 0
vn -0.014465 0.02909233 0
vn 0 0 -0.2440487
vn 0 0 -0.2440487
vn 0.014465 -0.02909233 0
vn 0.014465 -0.02909233 0
vn 0.014465 -0.02909233 0
vn 0.014465 -0.02909233 0
vn 0.8678618 0.4315095 0
vn 0.8678618 0.4315095 0
vn 0.8678618 0.4315095 0
vn 0.8678618 0.4315095 0
vn -0.8678618 -0.4315095 0
vn -0.8678618 -0.4315095 0
vn -0.8678618 -0.4315095 0
vn -0.8678618 -0.4315095 0
vt 0 0
vt 1 0
vt 0 1
vt 1 1
vt 0 1
vt 1 1
vt 0 1
vt 1 1
vt 0 0
vt 1 0
vt 0 0
vt 1 0
vt 0 0
vt 0 1
vt 1 1
vt 1 0
vt 0 0
vt 0 1
vt 1 1
vt 1 0
vt 0 0
vt 0 1
vt 1 1
vt 1 0
usemtl Dark Brown
f 52/52/52 51/51/51 49/49/49
f 50/50/50 52/52/52 49/49/49
f 54/54/54 53/53/53 57/57/57
f 58/58/58 54/54/54 57/57/57
f 56/56/56 55/55/55 59/59/59
f 60/60/60 56/56/56 59/59/59
f 63/63/63 62/62/62 61/61/61
f 64/64/64 63/63/63 61/61/61
f 67/67/67 66/66/66 65/65/65
f 68/68/68 67/67/67 65/65/65
f 71/71/71 70/70/70 69/69/69
f 72/72/72 71/71/71 69/69/69
g GroundCube (59)
v -209.5706 -238.5693 7.294666
v -190.8052 -238.5693 7.294666
v -209.5706 -222.6507 7.294666
v -190.8052 -222.6507 7.294666
v -209.5706 -222.6507 -16.62842
v -190.8052 -222.6507 -16.62842
v -209.5706 -238.5693 -16.62842
v -190.8052 -238.5693 -16.62842
v -209.5706 -222.6507 7.294666
v -190.8052 -222.6507 7.294666
v -209.5706 -222.6507 -16.62842
v -190.8052 -222.6507 -16.62842
v -209.5706 -238.5693 -16.62842
v -209.5706 -238.5693 7.294666
v -190.8052 -238.5693 7.294666
v -190.8052 -238.5693 -16.62842
v -190.8052 -238.5693 7.294666
v -190.8052 -222.6507 7.294666
v -190.8052 -222.6507 -16.62842
v -190.8052 -238.5693 -16.62842
v -209.5706 -238.5693 -16.62842
v -209.5706 -222.6507 -16.62842
v -209.5706 -222.6507 7.294666
v -209.5706 -238.5693 7.294666
vn 0 0 0.6970619
vn 0 0 0.6970619
vn 0 0 0.6970619
vn 0 0 0.6970619
vn 0 0.4638301 0
vn 0 0.4638301 0
vn 0 0 -0.6970619
vn 0 0 -0.6970619
vn 0 0.4638301 0
vn 0 0.4638301 0
vn 0 0 -0.6970619
vn 0 0 -0.6970619
vn 0 -0.4638301 0
vn 0 -0.4638301 0
vn 0 -0.4638301 0
vn 0 -0.4638301 0
vn 0.5467781 0 0
vn 0.5467781 0 0
vn 0.5467781 0 0
vn 0.5467781 0 0
vn -0.5467781 0 0
vn -0.5467781 0 0
vn -0.5467781 0 0
vn -0.5467781 0 0
vt 0 0
vt 1 0
vt 0 1
vt 1 1
vt 0 1
vt 1 1
vt 0 1
vt 1 1
vt 0 0
vt 1 0
vt 0 0
vt 1 0
vt 0 0
vt 0 1
vt 1 1
vt 1 0
vt 0 0
vt 0 1
vt 1 1
vt 1 0
vt 0 0
vt 0 1
vt 1 1
vt 1 0
usemtl Dark Brown
f 76/76/76 75/75/75 73/73/73
f 74/74/74 76/76/76 73/73/73
f 78/78/78 77/77/77 81/81/81
f 82/82/82 78/78/78 81/81/81
f 80/80/80 79/79/79 83/83/83
f 84/84/84 80/80/80 83/83/83
f 87/87/87 86/86/86 85/85/85
f 88/88/88 87/87/87 85/85/85
f 91/91/91 90/90/90 89/89/89
f 92/92/92 91/91/91 89/89/89
f 95/95/95 94/94/94 93/93/93
f 96/96/96 95/95/95 93/93/93
g GroundCube (13)
v 415.4886 -207.1273 10.05454
v 448.7734 -208.2013 10.05454
v 415.4981 -206.8325 10.05454
v 448.7829 -207.9065 10.05454
v 415.4981 -206.8325 -6.5483
v 448.7829 -207.9065 -6.5483
v 415.4886 -207.1273 -6.5483
v 448.7734 -208.2013 -6.5483
v 415.4981 -206.8325 10.05454
v 448.7829 -207.9065 10.05454
v 415.4981 -206.8325 -6.5483
v 448.7829 -207.9065 -6.5483
v 415.4886 -207.1273 -6.5483
v 415.4886 -207.1273 10.05454
v 448.7734 -208.2013 10.05454
v 448.7734 -208.2013 -6.5483
v 448.7734 -208.2013 10.05454
v 448.7829 -207.9065 10.05454
v 448.7829 -207.9065 -6.5483
v 448.7734 -208.2013 -6.5483
v 415.4886 -207.1273 -6.5483
v 415.4981 -206.8325 -6.5483
v 415.4981 -206.8325 10.05454
v 415.4886 -207.1273 10.05454
vn 0 0 0.446163
vn 0 0 0.446163
vn 0 0 0.446163
vn 0 0 0.446163
vn 0.0002556552 0.00792332 0
vn 0.0002556552 0.00792332 0
vn 0 0 -0.446163
vn 0 0 -0.446163
vn 0.0002556552 0.00792332 0
vn 0.0002556552 0.00792332 0
vn 0 0 -0.446163
vn 0 0 -0.446163
vn -0.0002556552 -0.00792332 0
vn -0.0002556552 -0.00792332 0
vn -0.0002556552 -0.00792332 0
vn -0.0002556552 -0.00792332 0
vn 0.8944511 -0.02886051 0
vn 0.8944511 -0.02886051 0
vn 0.8944511 -0.02886051 0
vn 0.8944511 -0.02886051 0
vn -0.8944511 0.02886051 0
vn -0.8944511 0.02886051 0
vn -0.8944511 0.02886051 0
vn -0.8944511 0.02886051 0
vt 0 0
vt 1 0
vt 0 1
vt 1 1
vt 0 1
vt 1 1
vt 0 1
vt 1 1
vt 0 0
vt 1 0
vt 0 0
vt 1 0
vt 0 0
vt 0 1
vt 1 1
vt 1 0
vt 0 0
vt 0 1
vt 1 1
vt 1 0
vt 0 0
vt 0 1
vt 1 1
vt 1 0
usemtl Dark Brown
f 100/100/100 99/99/99 97/97/97
f 98/98/98 100/100/100 97/97/97
f 102/102/102 101/101/101 105/105/105
f 106/106/106 102/102/102 105/105/105
f 104/104/104 103/103/103 107/107/107
f 108/108/108 104/104/104 107/107/107
f 111/111/111 110/110/110 109/109/109
f 112/112/112 111/111/111 109/109/109
f 115/115/115 114/114/114 113/113/113
f 116/116/116 115/115/115 113/113/113
f 119/119/119 118/118/118 117/117/117
f 120/120/120 119/119/119 117/117/117
g GroundCube (63)
v 181.0877 -218.1791 4.011494
v 203.3678 -207.4393 4.011494
v 180.8637 -217.7145 4.011494
v 203.1439 -206.9747 4.011494
v 180.8637 -217.7145 -1.345253
v 203.1439 -206.9747 -1.345253
v 181.0877 -218.1791 -1.345253
v 203.3678 -207.4393 -1.345253
v 180.8637 -217.7145 4.011494
v 203.1439 -206.9747 4.011494
v 180.8637 -217.7145 -1.345253
v 203.1439 -206.9747 -1.345253
v 181.0877 -218.1791 -1.345253
v 181.0877 -218.1791 4.011494
v 203.3678 -207.4393 4.011494
v 203.3678 -207.4393 -1.345253
v 203.3678 -207.4393 4.011494
v 203.1439 -206.9747 4.011494
v 203.1439 -206.9747 -1.345253
v 203.3678 -207.4393 -1.345253
v 181.0877 -218.1791 -1.345253
v 180.8637 -217.7145 -1.345253
v 180.8637 -217.7145 4.011494
v 181.0877 -218.1791 4.011494
vn 0 0 0.2116265
vn 0 0 0.2116265
vn 0 0 0.2116265
vn 0 0 0.2116265
vn -0.008847781 0.01835511 0
vn -0.008847781 0.01835511 0
vn 0 0 -0.2116265
vn 0 0 -0.2116265
vn -0.008847781 0.01835511 0
vn -0.008847781 0.01835511 0
vn 0 0 -0.2116265
vn 0 0 -0.2116265
vn 0.008847781 -0.01835511 0
vn 0.008847781 -0.01835511 0
vn 0.008847781 -0.01835511 0
vn 0.008847781 -0.01835511 0
vn 0.8802131 0.4242924 0
vn 0.8802131 0.4242924 0
vn 0.8802131 0.4242924 0
vn 0.8802131 0.4242924 0
vn -0.8802131 -0.4242924 0
vn -0.8802131 -0.4242924 0
vn -0.8802131 -0.4242924 0
vn -0.8802131 -0.4242924 0
vt 0 0
vt 1 0
vt 0 1
vt 1 1
vt 0 1
vt 1 1
vt 0 1
vt 1 1
vt 0 0
vt 1 0
vt 0 0
vt 1 0
vt 0 0
vt 0 1
vt 1 1
vt 1 0
vt 0 0
vt 0 1
vt 1 1
vt 1 0
vt 0 0
vt 0 1
vt 1 1
vt 1 0
usemtl Dark Brown
f 124/124/124 123/123/123 121/121/121
f 122/122/122 124/124/124 121/121/121
f 126/126/126 125/125/125 129/129/129
f 130/130/130 126/126/126 129/129/129
f 128/128/128 127/127/127 131/131/131
f 132/132/132 128/128/128 131/131/131
f 135/135/135 134/134/134 133/133/133
f 136/136/136 135/135/135 133/133/133
f 139/139/139 138/138/138 137/137/137
f 140/140/140 139/139/139 137/137/137
f 143/143/143 142/142/142 141/141/141
f 144/144/144 143/143/143 141/141/141
g GroundCube (56)
v -225.2113 -224.9669 11.60086
v -194.3683 -217.9053 11.60086
v -226.4917 -219.3747 11.60086
v -195.6487 -212.313 11.60086
v -226.4917 -219.3747 -16.13462
v -195.6487 -212.313 -16.13462
v -225.2113 -224.9669 -16.13462
v -194.3683 -217.9053 -16.13462
v -226.4917 -219.3747 11.60086
v -195.6487 -212.313 11.60086
v -226.4917 -219.3747 -16.13462
v -195.6487 -212.313 -16.13462
v -225.2113 -224.9669 -16.13462
v -225.2113 -224.9669 11.60086
v -194.3683 -217.9053 11.60086
v -194.3683 -217.9053 -16.13462
v -194.3683 -217.9053 11.60086
v -195.6487 -212.313 11.60086
v -195.6487 -212.313 -16.13462
v -194.3683 -217.9053 -16.13462
v -225.2113 -224.9669 -16.13462
v -226.4917 -219.3747 -16.13462
v -226.4917 -219.3747 11.60086
v -225.2113 -224.9669 11.60086
vn 0 0 0.6531279
vn 0 0 0.6531279
vn 0 0 0.6531279
vn 0 0 0.6531279
vn -0.03015086 0.1316896 0
vn -0.03015086 0.1316896 0
vn 0 0 -0.6531279
vn 0 0 -0.6531279
vn -0.03015086 0.1316896 0
vn -0.03015086 0.1316896 0
vn 0 0 -0.6531279
vn 0 0 -0.6531279
vn 0.03015086 -0.1316896 0
vn 0.03015086 -0.1316896 0
vn 0.03015086 -0.1316896 0
vn 0.03015086 -0.1316896 0
vn 0.7263058 0.1662906 0
vn 0.7263058 0.1662906 0
vn 0.7263058 0.1662906 0
vn 0.7263058 0.1662906 0
vn -0.7263058 -0.1662906 0
vn -0.7263058 -0.1662906 0
vn -0.7263058 -0.1662906 0
vn -0.7263058 -0.1662906 0
vt 0 0
vt 1 0
vt 0 1
vt 1 1
vt 0 1
vt 1 1
vt 0 1
vt 1 1
vt 0 0
vt 1 0
vt 0 0
vt 1 0
vt 0 0
vt 0 1
vt 1 1
vt 1 0
vt 0 0
vt 0 1
vt 1 1
vt 1 0
vt 0 0
vt 0 1
vt 1 1
vt 1 0
usemtl Dark Brown
f 148/148/148 147/147/147 145/145/145
f 146/146/146 148/148/148 145/145/145
f 150/150/150 149/149/149 153/153/153
f 154/154/154 150/150/150 153/153/153
f 152/152/152 151/151/151 155/155/155
f 156/156/156 152/152/152 155/155/155
f 159/159/159 158/158/158 157/157/157
f 160/160/160 159/159/159 157/157/157
f 163/163/163 162/162/162 161/161/161
f 164/164/164 163/163/163 161/161/161
f 167/167/167 166/166/166 165/165/165
f 168/168/168 167/167/167 165/165/165
g GroundCube (13)
v -268.4252 -223.6465 11.76942
v -245.1875 -224.6483 11.76942
v -268.4124 -223.3517 11.76942
v -245.1748 -224.3535 11.76942
v -268.4124 -223.3517 -4.833421
v -245.1748 -224.3535 -4.833421
v -268.4252 -223.6465 -4.833421
v -245.1875 -224.6483 -4.833421
v -268.4124 -223.3517 11.76942
v -245.1748 -224.3535 11.76942
v -268.4124 -223.3517 -4.833421
v -245.1748 -224.3535 -4.833421
v -268.4252 -223.6465 -4.833421
v -268.4252 -223.6465 11.76942
v -245.1875 -224.6483 11.76942
v -245.1875 -224.6483 -4.833421
v -245.1875 -224.6483 11.76942
v -245.1748 -224.3535 11.76942
v -245.1748 -224.3535 -4.833421
v -245.1875 -224.6483 -4.833421
v -268.4252 -223.6465 -4.833421
v -268.4124 -223.3517 -4.833421
v -268.4124 -223.3517 11.76942
v -268.4252 -223.6465 11.76942
vn 0 0 0.580955
vn 0 0 0.580955
vn 0 0 0.580955
vn 0 0 0.580955
vn 0.0004446119 0.01031285 0
vn 0.0004446119 0.01031285 0
vn 0 0 -0.580955
vn 0 0 -0.580955
vn 0.0004446119 0.01031285 0
vn 0.0004446119 0.01031285 0
vn 0 0 -0.580955
vn 0 0 -0.580955
vn -0.0004446119 -0.01031285 0
vn -0.0004446119 -0.01031285 0
vn -0.0004446119 -0.01031285 0
vn -0.0004446119 -0.01031285 0
vn 0.8131149 -0.03505534 0
vn 0.8131149 -0.03505534 0
vn 0.8131149 -0.03505534 0
vn 0.8131149 -0.03505534 0
vn -0.8131149 0.03505534 0
vn -0.8131149 0.03505534 0
vn -0.8131149 0.03505534 0
vn -0.8131149 0.03505534 0
vt 0 0
vt 1 0
vt 0 1
vt 1 1
vt 0 1
vt 1 1
vt 0 1
vt 1 1
vt 0 0
vt 1 0
vt 0 0
vt 1 0
vt 0 0
vt 0 1
vt 1 1
vt 1 0
vt 0 0
vt 0 1
vt 1 1
vt 1 0
vt 0 0
vt 0 1
vt 1 1
vt 1 0
usemtl Dark Brown
f 172/172/172 171/171/171 169/169/169
f 170/170/170 172/172/172 169/169/169
f 174/174/174 173/173/173 177/177/177
f 178/178/178 174/174/174 177/177/177
f 176/176/176 175/175/175 179/179/179
f 180/180/180 176/176/176 179/179/179
f 183/183/183 182/182/182 181/181/181
f 184/184/184 183/183/183 181/181/181
f 187/187/187 186/186/186 185/185/185
f 188/188/188 187/187/187 185/185/185
f 191/191/191 190/190/190 189/189/189
f 192/192/192 191/191/191 189/189/189
