# This file uses centimeters as units for non-parametric coordinates.

mtllib Mountains.mtl
g default
v 84.271225 0.132257 6.639139
v 73.542465 17.257833 3.268401
v 74.265366 17.830976 1.633137
v 80.347641 0.132257 16.236507
v 73.878441 21.903124 7.134512
v 71.804108 23.411976 3.099217
v 74.236504 0.132257 22.347637
v 69.536362 30.315609 9.819814
v 68.029274 25.432987 4.265705
v 66.536034 0.132257 26.271233
v 64.065025 25.572304 11.543882
v 63.272697 23.838951 5.014637
v 58.000000 0.132259 27.623199
v 58.000000 33.664963 18.625401
v 58.000000 27.097565 5.272701
v 49.463963 0.132257 26.271233
v 51.934975 25.572306 11.543882
v 52.727303 23.838951 5.014637
v 41.763496 0.132257 22.347637
v 46.463638 30.315609 9.819814
v 47.970730 25.432987 4.265705
v 35.652363 0.132257 16.236507
v 42.121559 21.903120 7.134512
v 44.195892 23.411976 3.099217
v 31.728775 0.132257 6.639139
v 42.457539 17.257833 3.268401
v 41.734634 17.830976 1.633137
v 85.623199 0.132257 0.000001
v 30.376804 0.132257 0.000001
v 71.804108 25.092527 0.012138
v 68.029274 30.489414 0.016706
v 63.272697 29.838497 0.019639
v 58.000000 33.161148 0.000002
v 52.727303 29.838497 0.000002
v 47.970730 30.489414 0.000002
v 44.195892 25.092527 0.000002
vt 0.213320 0.989179
vt 0.214284 0.798330
vt 0.250959 0.749348
vt 0.305318 0.977223
vt 0.198651 0.799719
vt 0.212034 0.738271
vt 0.149641 0.984123
vt 0.190162 0.739724
vt 0.286682 0.654576
vt 0.372640 0.956538
vt 0.202590 0.693130
vt 0.168310 0.748929
vt 0.362868 0.668649
vt 0.434515 0.941410
vt 0.316294 0.619919
vt 0.139734 0.738314
vt 0.486313 0.624714
vt 0.491453 0.917732
vt 0.610935 0.577471
vt 0.314539 0.512953
vt 0.755581 0.606366
vt 0.549185 0.939394
vt 0.824894 0.668022
vt 0.683226 0.554951
vt 0.686878 0.647546
vt 0.611548 0.952340
vt 0.772286 0.683112
vt 0.808626 0.737736
vt 0.725900 0.741010
vt 0.679545 0.970654
vt 0.764420 0.728575
vt 0.786401 0.729318
vt 0.764258 0.788689
vt 0.771894 0.979382
vt 0.779928 0.789537
vt 0.835349 0.972097
vt 0.836806 0.726096
vt 0.287164 0.561993
vt 0.656053 0.613941
vt 0.805191 0.647360
vt 0.149469 0.679930
vt 0.168441 0.658564
vt 0.360096 0.581882
vt 0.654047 0.506981
vt 0.611226 0.664284
vt 0.216571 0.615845
vn 0.899413 0.427255 0.092251
vn 0.899413 0.427255 0.092251
vn 0.899413 0.427255 0.092251
vn 0.899413 0.427255 0.092251
vn 0.955121 0.266221 -0.129883
vn 0.955121 0.266221 -0.129883
vn 0.955121 0.266221 -0.129883
vn 0.955121 0.266221 -0.129883
vn 0.753955 0.375825 0.538802
vn 0.753955 0.375825 0.538802
vn 0.753955 0.375825 0.538802
vn 0.753955 0.375825 0.538802
vn 0.755557 0.383531 0.531073
vn 0.755557 0.383531 0.531073
vn 0.755556 0.383531 0.531073
vn 0.755556 0.383531 0.531073
vn 0.613013 0.645230 -0.455953
vn 0.613013 0.645230 -0.455953
vn 0.613013 0.645230 -0.455953
vn 0.613013 0.645230 -0.455953
vn 0.638033 0.567144 0.520828
vn 0.638033 0.567144 0.520828
vn 0.638033 0.567144 0.520828
vn 0.638033 0.567144 0.520828
vn 0.209106 0.451891 0.867219
vn 0.209106 0.451891 0.867219
vn 0.209106 0.451891 0.867219
vn 0.209106 0.451891 0.867219
vn -0.553747 0.770249 -0.316356
vn -0.553747 0.770249 -0.316356
vn -0.553747 0.770249 -0.316356
vn -0.553747 0.770249 -0.316356
vn -0.090366 0.638816 0.764034
vn -0.090366 0.638816 0.764034
vn -0.090366 0.638816 0.764034
vn -0.090366 0.638816 0.764034
vn 0.600575 0.319959 0.732759
vn 0.600575 0.319959 0.732759
vn 0.600575 0.319959 0.732759
vn 0.600575 0.319959 0.732759
vn 0.545445 0.765495 -0.341332
vn 0.545445 0.765495 -0.341332
vn 0.545445 0.765495 -0.341332
vn 0.545445 0.765495 -0.341332
vn 0.388586 0.597226 0.701657
vn 0.388586 0.597226 0.701657
vn 0.388586 0.597226 0.701657
vn 0.388586 0.597226 0.701657
vn -0.600575 0.319959 0.732759
vn -0.600575 0.319959 0.732759
vn -0.600575 0.319959 0.732759
vn -0.600575 0.319959 0.732759
vn -0.545445 0.765495 -0.341333
vn -0.545445 0.765495 -0.341333
vn -0.545445 0.765495 -0.341333
vn -0.545445 0.765495 -0.341332
vn -0.390033 0.597490 0.700628
vn -0.390033 0.597490 0.700628
vn -0.390033 0.597490 0.700628
vn -0.390033 0.597490 0.700628
vn -0.209106 0.451892 0.867219
vn -0.209106 0.451892 0.867219
vn -0.209106 0.451892 0.867219
vn -0.209106 0.451892 0.867219
vn 0.553747 0.770248 -0.316357
vn 0.553747 0.770248 -0.316357
vn 0.553747 0.770248 -0.316357
vn 0.553747 0.770248 -0.316357
vn 0.091041 0.640251 0.762752
vn 0.091041 0.640251 0.762752
vn 0.091041 0.640251 0.762752
vn 0.091041 0.640251 0.762752
vn -0.755557 0.383531 0.531072
vn -0.755557 0.383531 0.531072
vn -0.755557 0.383531 0.531073
vn -0.755557 0.383531 0.531072
vn -0.613013 0.645230 -0.455953
vn -0.613013 0.645230 -0.455953
vn -0.613013 0.645230 -0.455953
vn -0.613013 0.645230 -0.455953
vn -0.638336 0.567975 0.519549
vn -0.638336 0.567975 0.519549
vn -0.638336 0.567975 0.519549
vn -0.638336 0.567975 0.519549
vn -0.899413 0.427255 0.092251
vn -0.899413 0.427255 0.092251
vn -0.899413 0.427255 0.092251
vn -0.899413 0.427255 0.092251
vn -0.955121 0.266222 -0.129882
vn -0.955121 0.266222 -0.129882
vn -0.955121 0.266222 -0.129882
vn -0.955121 0.266222 -0.129883
vn -0.754881 0.376622 0.536945
vn -0.754881 0.376622 0.536945
vn -0.754881 0.376622 0.536945
vn -0.754881 0.376623 0.536945
vn 0.814159 0.528377 0.240756
vn 0.814159 0.528377 0.240756
vn 0.814159 0.528377 0.240756
vn 0.814159 0.528377 0.240756
vn -0.814159 0.528377 0.240756
vn -0.814159 0.528377 0.240756
vn -0.814159 0.528376 0.240756
vn -0.814159 0.528376 0.240756
s off
g polySurface1 pSphere3
usemtl initialShadingGroup
f 1/1/1 2/2/2 5/3/3 4/4/4
f 2/2/5 3/5/6 6/6/7 5/3/8
f 3/5/9 28/7/10 30/8/11 6/6/12
f 4/4/13 5/3/14 8/9/15 7/10/16
f 5/3/17 6/6/18 9/11/19 8/9/20
f 6/6/21 30/8/22 31/12/23 9/11/24
f 7/10/25 8/9/26 11/13/27 10/14/28
f 8/9/29 9/11/30 12/42/31 11/46/32
f 9/11/33 31/12/34 32/16/35 12/41/36
f 10/14/37 11/13/38 14/17/39 13/18/40
f 11/13/41 12/15/42 15/43/43 14/17/44
f 12/15/45 32/38/46 33/20/47 15/43/48
f 13/18/49 14/17/50 17/45/51 16/22/52
f 14/17/53 15/19/54 18/39/55 17/45/56
f 15/19/57 33/44/58 34/24/59 18/39/60
f 16/22/61 17/45/62 20/25/63 19/26/64
f 17/21/65 18/40/66 21/27/67 20/25/68
f 18/23/69 34/37/70 35/28/71 21/27/72
f 19/26/73 20/25/74 23/29/75 22/30/76
f 20/25/77 21/27/78 24/31/79 23/29/80
f 21/27/81 35/28/82 36/32/83 24/31/84
f 22/30/85 23/29/86 26/33/87 25/34/88
f 23/29/89 24/31/90 27/35/91 26/33/92
f 24/31/93 36/32/94 29/36/95 27/35/96
f 2/2/97 1/1/98 28/7/99 3/5/100
f 29/36/101 25/34/102 26/33/103 27/35/104
g default
v -6.639137 0.132257 26.271225
v -3.268399 17.257833 15.542464
v -1.633135 17.830976 16.265366
v 1.633136 17.830976 16.265366
v 3.268398 17.257835 15.542461
v 6.639137 0.132257 26.271225
v -16.236507 0.132257 22.347637
v -7.134510 21.903124 15.878446
v -3.099215 23.411976 13.804110
v 3.099216 23.411974 13.804110
v 7.134510 21.903122 15.878446
v 16.236506 0.132257 22.347637
v -22.347637 0.132257 16.236507
v -9.819812 30.315609 11.536366
v -4.265703 25.432987 10.029273
v 4.265704 25.432987 10.029273
v 9.819811 30.315613 11.536366
v 22.347637 0.132257 16.236507
v -26.271231 0.132257 8.536038
v -11.543880 25.572304 6.065027
v -5.014636 23.838951 5.272701
v 5.014637 23.838947 5.272701
v 11.543880 25.572302 6.065028
v 26.271225 0.132257 8.536038
v -27.623198 0.132259 0.000002
v -18.625401 33.664963 0.000001
v -5.272699 27.097565 0.000002
v 5.272700 27.097565 0.000002
v 18.625401 33.664963 0.000001
v 27.623196 0.132257 0.000002
v 0.000001 0.132257 27.623196
v -0.007339 11.001931 20.485104
v -0.012136 25.092527 13.804110
v -0.016704 30.489414 10.029273
v -0.019637 29.838497 5.272701
v 0.000000 33.161148 0.000002
vt 0.444660 0.072784
vt 0.441938 0.300560
vt 0.377841 0.330222
vt 0.377646 0.064679
vt 0.463821 0.304511
vt 0.432066 0.372290
vt 0.485787 0.220052
vt 0.485682 0.384353
vt 0.507871 0.304516
vt 0.529764 0.300584
vt 0.593854 0.330295
vt 0.539634 0.372331
vt 0.527240 0.072810
vt 0.594260 0.064758
vt 0.286733 0.394879
vt 0.312616 0.054166
vt 0.421548 0.426053
vt 0.485668 0.440479
vt 0.684914 0.395024
vt 0.550089 0.426079
vt 0.659300 0.054294
vt 0.208405 0.342996
vt 0.240975 0.023559
vt 0.399815 0.480418
vt 0.485642 0.487636
vt 0.763284 0.343205
vt 0.571747 0.480478
vt 0.730967 0.023744
vt 0.074645 0.373312
vt 0.162067 0.010695
vt 0.416425 0.541173
vt 0.485729 0.557625
vt 0.890612 0.330103
vt 0.772985 0.440881
vt 0.809886 0.010943
vt 0.485950 0.077553
vt 0.555130 0.541276
vt 0.198622 0.440663
vt 0.743541 0.422899
vt 0.228081 0.422706
vt 0.716954 0.425720
vt 0.254667 0.425549
vt 0.586227 0.409545
vt 0.385435 0.409473
vt 0.897018 0.373634
vt 0.081087 0.329790
vn -0.092251 0.427254 0.899413
vn -0.092251 0.427254 0.899413
vn -0.092251 0.427255 0.899413
vn -0.092251 0.427255 0.899413
vn 0.129884 0.266221 0.955121
vn 0.129884 0.266221 0.955121
vn 0.129883 0.266221 0.955121
vn 0.129884 0.266221 0.955121
vn -0.361211 0.370652 0.855654
vn 0.001747 0.397684 0.917521
vn 0.000392 0.397684 0.917522
vn -0.361211 0.370652 0.855654
vn -0.129883 0.266221 0.955121
vn -0.129883 0.266221 0.955121
vn -0.129883 0.266221 0.955121
vn -0.129883 0.266221 0.955121
vn 0.092251 0.427254 0.899413
vn 0.092251 0.427254 0.899413
vn 0.092251 0.427255 0.899413
vn 0.092251 0.427254 0.899413
vn -0.531072 0.383531 0.755557
vn -0.531072 0.383531 0.755557
vn -0.531072 0.383531 0.755557
vn -0.531072 0.383531 0.755557
vn 0.455953 0.645231 0.613012
vn 0.455953 0.645231 0.613012
vn 0.455953 0.645231 0.613012
vn 0.455953 0.645231 0.613012
vn -0.520828 0.567144 0.638032
vn -0.000192 0.664733 0.747081
vn 0.000500 0.664734 0.747080
vn -0.520829 0.567144 0.638032
vn -0.455954 0.645230 0.613013
vn -0.455954 0.645230 0.613013
vn -0.455954 0.645230 0.613013
vn -0.455954 0.645230 0.613013
vn 0.531072 0.383531 0.755557
vn 0.531072 0.383531 0.755557
vn 0.531072 0.383531 0.755557
vn 0.531072 0.383531 0.755557
vn -0.867219 0.451891 0.209106
vn -0.867219 0.451891 0.209106
vn -0.867219 0.451891 0.209106
vn -0.867219 0.451891 0.209106
vn 0.316356 0.770249 -0.553747
vn 0.316356 0.770249 -0.553747
vn 0.316356 0.770249 -0.553747
vn 0.316356 0.770249 -0.553747
vn -0.764034 0.638816 -0.090365
vn 0.000455 0.990041 -0.140780
vn -0.000396 0.990041 -0.140779
vn -0.764034 0.638816 -0.090365
vn -0.316357 0.770248 -0.553748
vn -0.316357 0.770248 -0.553748
vn -0.316357 0.770248 -0.553748
vn -0.316357 0.770248 -0.553748
vn 0.867219 0.451891 0.209105
vn 0.867219 0.451891 0.209105
vn 0.867219 0.451891 0.209105
vn 0.867219 0.451891 0.209105
vn -0.732759 0.319959 0.600575
vn -0.732759 0.319959 0.600575
vn -0.732759 0.319959 0.600575
vn -0.732759 0.319959 0.600575
vn 0.341332 0.765495 0.545445
vn 0.341332 0.765495 0.545445
vn 0.341332 0.765495 0.545445
vn 0.341332 0.765495 0.545445
vn -0.701657 0.597225 0.388586
vn -0.001447 0.837377 0.546624
vn 0.001917 0.837373 0.546628
vn -0.701657 0.597225 0.388586
vn -0.341332 0.765495 0.545445
vn -0.341332 0.765495 0.545445
vn -0.341332 0.765495 0.545445
vn -0.341332 0.765495 0.545445
vn 0.732759 0.319959 0.600575
vn 0.732759 0.319959 0.600575
vn 0.732759 0.319959 0.600575
vn 0.732759 0.319959 0.600575
vn -0.240756 0.528376 0.814159
vn -0.240756 0.528376 0.814159
vn -0.240756 0.528376 0.814159
vn -0.240756 0.528376 0.814159
vn 0.000001 0.548918 0.835876
vn 0.000001 0.548918 0.835876
vn 0.000001 0.548918 0.835876
vn 0.000001 0.548918 0.835876
vn 0.240756 0.528376 0.814159
vn 0.240756 0.528376 0.814159
vn 0.240756 0.528377 0.814159
vn 0.240756 0.528376 0.814159
vn 0.358168 0.371481 0.856573
vn 0.358168 0.371481 0.856573
vn 0.518275 0.568801 0.638637
vn 0.518275 0.568801 0.638637
vn 0.761471 0.641678 -0.091713
vn 0.761471 0.641678 -0.091713
vn 0.699601 0.597752 0.391474
vn 0.699601 0.597752 0.391474
s off
g pSphere3 polySurface2
usemtl initialShadingGroup
f 37/47/105 38/48/106 44/49/107 43/50/108
f 38/48/109 39/51/110 45/52/111 44/49/112
s 1
f 39/51/113 68/53/114 69/54/115 45/52/116
s off
f 40/55/117 41/56/118 47/57/119 46/58/120
f 41/56/121 42/59/122 48/60/123 47/57/124
f 43/50/125 44/49/126 50/61/127 49/62/128
f 44/49/129 45/52/130 51/90/131 50/61/132
s 2
f 45/52/133 69/54/134 70/64/135 51/63/136
s off
f 46/58/137 47/57/138 53/65/139 52/89/140
f 47/57/141 48/60/142 54/67/143 53/65/144
f 49/62/145 50/61/146 56/68/147 55/69/148
f 50/61/149 51/88/150 57/86/151 56/68/152
s 3
f 51/63/153 70/64/154 71/71/155 57/70/156
s off
f 52/87/157 53/65/158 59/72/159 58/85/160
f 53/65/161 54/67/162 60/74/163 59/72/164
f 55/69/165 56/68/166 62/92/167 61/76/168
f 56/68/169 57/86/170 63/84/171 62/75/172
s 4
f 57/70/173 71/71/174 72/78/175 63/77/176
s off
f 58/85/177 59/72/178 65/91/179 64/80/180
f 59/72/181 60/74/182 66/81/183 65/79/184
f 38/48/185 37/47/186 67/82/187 39/51/188
f 67/82/189 40/55/190 68/53/191 39/51/192
f 41/56/193 40/55/194 67/82/195 42/59/196
s 1
f 69/54/115 68/53/114 40/55/197 46/58/198
s 2
f 70/64/135 69/54/134 46/58/199 52/66/200
s 3
f 71/71/155 70/64/154 52/66/201 58/73/202
s 4
f 72/78/175 71/71/174 58/73/203 64/83/204
