# This file uses centimeters as units for non-parametric coordinates.

mtllib RockLow1.mtl
g default
v -7.678009 49.893523 -28.768373
v -15.645993 56.633646 10.187063
v -10.447074 101.678584 -22.188160
v -4.447727 77.183450 15.313060
v 17.926210 68.209202 -22.666996
v 26.517847 64.933425 15.856961
v 9.956041 30.000003 -17.892555
v 18.687162 30.000043 27.050534
v 20.650416 30.000043 15.986951
v -17.083949 49.726276 -3.437228
v -13.276039 100.912267 9.790345
v 30.150694 60.926692 2.999011
v 12.334144 30.000071 1.574234
v -16.349574 52.398625 -15.215550
v -15.311621 101.825726 -11.457196
v 19.685149 69.573189 -3.625013
v 20.382866 50.590878 -20.357013
v -11.046210 60.737815 -22.257510
v -24.973625 56.843299 -13.868553
v -22.719409 64.614854 6.718130
v -19.904713 61.529716 18.926110
v 17.852563 30.000005 32.625154
v 26.618337 45.857831 12.461738
v 16.139124 46.581812 -5.652242
v 24.244799 61.480112 -24.002732
v -9.223015 89.748191 -32.080559
v -17.921626 71.121574 -20.008749
v -23.308071 81.119517 19.197499
v -13.963740 73.958682 23.971308
v 14.680887 55.365066 24.049497
v 26.710815 52.678692 4.745778
v 27.074410 57.809981 -8.836538
v -4.041210 35.912817 12.678325
v -5.134883 30.000002 11.576795
v -8.444008 39.793726 -9.801790
v 6.556121 50.840874 -22.848406
v -0.308046 60.498401 -41.819077
v 3.827390 81.564637 -39.154311
v 5.663221 94.205041 -27.360849
v 3.664532 106.999987 -8.502826
v 2.298089 104.613120 6.873912
v 3.652403 72.516270 14.847614
v -6.798946 65.528833 34.939906
v -11.686945 56.141236 29.921206
v -0.804812 30.000002 34.957703
v 6.699385 30.000000 24.369075
v 4.054031 30.000001 -0.588870
v 5.805834 30.000030 -22.770357
v 11.908737 51.441057 -34.425604
v 12.862478 73.122068 -36.526226
v 15.910876 78.661308 -29.048070
v 8.646647 91.249122 -12.854055
v 20.152789 81.041265 14.560305
v 19.580506 75.424684 20.500083
v 10.707339 60.248604 29.640314
v 0.945615 30.000009 41.480182
vt 0.590443 0.564094
vt 0.617511 0.201206
vt 0.864006 0.497398
vt 0.848987 0.172342
vt 0.523810 0.431957
vt 0.197828 0.452658
vt 0.395097 0.207697
vt 0.081420 0.233139
vt 0.281336 0.697042
vt 0.148309 0.954965
vt 0.871331 0.961479
vt 0.699366 0.896361
vt 0.649126 0.945561
vt 0.574337 0.693782
vt 0.148275 0.247245
vt 0.570730 0.332246
vt 0.202019 0.855877
vt 0.829751 0.307945
vt 0.262108 0.473485
vt 0.281726 0.167985
vt 0.552767 0.451315
vt 0.210503 0.762034
vt 0.828664 0.406876
vt 0.394027 0.444736
vt 0.676210 0.913815
vt 0.404963 0.245223
vt 0.710890 0.560313
vt 0.652584 0.433980
vt 0.687938 0.326618
vt 0.693185 0.195886
vt 0.079449 0.247546
vt 0.860672 0.957796
vt 0.189347 0.282493
vt 0.291158 0.267421
vt 0.628373 0.776223
vt 0.467117 0.354969
vt 0.772078 0.545239
vt 0.765370 0.391513
vt 0.720316 0.291199
vt 0.769955 0.146555
vt 0.105165 0.346020
vt 0.780491 0.980208
vt 0.187148 0.343815
vt 0.297174 0.370861
vt 0.072670 0.017282
vt 0.538753 0.085862
vt 0.319097 0.892537
vt 0.342863 0.014058
vt 0.475214 0.987840
vt 0.385753 0.693554
vt 0.435446 0.910305
vt 0.413746 0.794309
vt 0.908293 0.568210
vt 0.922362 0.549067
vt 0.948333 0.440544
vt 0.964151 0.332105
vt 0.962760 0.171091
vt 0.846354 0.053521
vt 0.757802 0.083824
vt 0.577964 0.075526
vt 0.081608 0.104471
vt 0.896190 0.822925
vt 0.163821 0.123511
vt 0.284681 0.127779
vt 0.615884 0.972624
vt 0.404550 0.168969
vt 0.512200 0.853122
vt 0.483261 0.751227
vt 0.486761 0.670653
vt 0.533060 0.516457
vt 0.437378 0.539377
vt 0.264398 0.600016
vt 0.163694 0.575322
vt 0.661110 0.789151
vt 0.811187 0.864415
vt 0.871172 0.851263
vt 0.296075 0.790245
vt 0.177739 0.009043
vt 0.855580 0.727934
vt 0.270988 0.961779
vt 0.895925 0.731310
vt 0.682714 0.637558
vt 0.180868 0.729945
vt 0.574007 0.654452
vt 0.302674 0.624604
vt 0.400916 0.645879
vt 0.360880 0.741113
vt 0.516724 0.646415
vt 0.869366 0.615674
vt 0.770536 0.653413
vt 0.700099 0.627547
vt 0.493028 0.082082
vn -0.883222 0.151818 -0.443700
vn -0.921529 0.118907 -0.369655
vn -0.958040 0.229746 -0.171396
vn -0.904171 0.194026 -0.380563
vn 0.921365 0.388248 -0.018690
vn 0.882931 0.460390 -0.092059
vn 0.877559 0.427242 -0.217611
vn 0.927052 0.374915 -0.003606
vn 0.790511 0.608992 -0.064981
vn 0.834908 0.537433 -0.118720
vn 0.969534 -0.107711 -0.220007
vn 0.968744 0.227773 -0.098255
vn 0.000003 -1.000000 0.000001
vn 0.000004 -1.000000 -0.000001
vn -0.406215 -0.873760 -0.267455
vn -0.659835 -0.613093 -0.434436
vn 0.282839 0.367260 0.886071
vn 0.615090 0.143921 0.775210
vn 0.661733 -0.029069 0.749176
vn 0.367703 0.494621 0.787492
vn 0.769142 -0.162818 -0.617989
vn 0.627504 0.106142 -0.771345
vn 0.730434 0.463641 -0.501501
vn 0.903726 0.381066 -0.195111
vn 0.000004 -1.000000 -0.000001
vn 0.000003 -1.000000 0.000001
vn -0.390765 -0.917641 0.072369
vn -0.108248 -0.993922 0.020048
vn -0.941824 0.329307 0.067271
vn -0.907415 0.335532 0.253015
vn -0.163651 0.296147 0.941018
vn 0.268627 0.443124 0.855267
vn 0.884535 0.436604 -0.164243
vn 0.718003 0.602942 0.347754
vn 0.318696 0.447395 0.835626
vn 0.897906 0.373555 0.232857
vn 0.951841 -0.256727 0.167601
vn 0.967318 -0.175497 0.183024
vn 0.783034 -0.410969 0.466864
vn 0.826717 0.158334 0.539878
vn 0.730336 -0.457589 -0.507170
vn 0.568799 -0.557273 -0.604908
vn 0.354022 -0.421900 -0.834667
vn 0.736229 -0.335159 -0.587908
vn -0.681319 -0.168275 -0.712382
vn -0.821777 -0.454188 -0.344088
vn -0.962102 -0.117991 -0.245843
vn -0.596097 -0.181592 -0.782108
vn -0.998611 -0.009747 0.051773
vn -0.761837 -0.628898 0.155212
vn -0.848211 -0.325252 0.418030
vn -0.775409 -0.593558 0.215477
vn -0.171222 -0.245276 0.954213
vn -0.869653 -0.487238 0.079393
vn -0.000000 -1.000000 -0.000003
vn 0.589168 -0.216085 0.778581
vn 0.876778 -0.388749 -0.283081
vn 0.988505 -0.018468 0.150054
vn 0.886409 0.144380 0.439810
vn 0.933476 -0.322463 0.156971
vn 0.882011 -0.388765 -0.266306
vn 0.874746 -0.442516 -0.197481
vn 0.874057 -0.482436 -0.057271
vn 0.934664 -0.355410 0.009333
vn -0.793593 -0.582725 0.175048
vn -0.818081 -0.446781 0.362120
vn -0.851486 -0.314135 0.419869
vn -0.861246 -0.501551 0.081865
vn -0.669252 -0.646945 -0.365464
vn -0.537186 -0.774078 -0.335013
vn -0.571079 -0.641229 -0.512537
vn -0.213639 -0.858672 -0.465875
vn -0.396312 -0.166100 -0.902966
vn -0.716720 -0.484883 -0.501200
vn -0.366519 -0.609929 -0.702603
vn -0.692876 -0.148626 -0.705573
vn -0.228756 0.245404 -0.942044
vn -0.410003 0.384932 -0.826876
vn 0.205819 0.637652 -0.742320
vn 0.039887 0.660635 -0.749647
vn 0.035313 0.918603 -0.393602
vn -0.137099 0.984222 -0.111852
vn 0.464241 0.877726 -0.118649
vn 0.702749 0.679130 -0.211960
vn 0.419576 0.793212 0.441329
vn -0.077030 0.783345 0.616796
vn -0.039236 0.310709 0.949695
vn 0.146939 0.257681 0.954992
vn -0.270661 0.613207 0.742105
vn -0.120350 0.439043 0.890369
vn 0.128008 0.791286 0.597897
vn 0.329622 0.793918 0.510924
vn -0.877390 -0.303498 0.371585
vn -0.665139 -0.157543 0.729912
vn -0.823397 -0.546857 0.151544
vn -0.905159 -0.412943 0.100827
vn -0.229079 -0.957907 -0.173026
vn -0.229079 -0.957907 -0.173026
vn -0.229079 -0.957907 -0.173026
vn -0.229079 -0.957907 -0.173026
s 1
g pasted__pCube2 group
usemtl pasted__lambert3SG
f 26/37/1 27/38/2 15/23/3 3/3/4
s 2
f 51/70/5 52/71/6 16/24/7 5/5/8
s 3
f 5/5/9 16/24/10 32/44/11 25/36/12
s 4
f 7/7/13 13/20/14 47/64/15 48/66/16
s 5
f 55/75/17 30/42/18 6/12/19 54/74/20
s 6
f 25/35/21 50/68/22 51/69/23 5/14/24
s 4
f 9/15/25 8/8/26 45/61/27 46/63/28
s 1
f 11/18/29 28/39/30 29/40/31 4/4/32
s 2
f 12/19/33 53/72/34 54/73/35 6/6/36
s 3
f 31/43/37 12/19/38 6/6/39 30/41/40
s 4
f 13/20/14 9/15/25 46/63/28 47/64/15
s 1
f 15/23/3 27/38/2 28/39/30 11/18/29
s 2
f 16/24/7 52/71/6 53/72/34 12/19/33
s 3
f 32/44/11 16/24/10 12/19/38 31/43/37
s 6
f 7/13/41 48/65/42 49/67/43 17/25/44
s 1
f 1/1/45 14/21/46 19/28/47 18/27/48
f 20/29/49 19/28/47 14/21/46 10/16/50
f 21/30/51 20/29/49 10/16/50 2/2/52
s 5
f 56/76/53 45/62/54 8/11/55 22/32/56
s 3
f 9/15/57 23/33/58 22/31/59 8/8/60
f 13/20/61 24/34/62 23/33/58 9/15/57
f 17/26/63 24/34/62 13/20/61 7/7/64
s 6
f 17/25/44 49/67/43 50/68/22 25/35/21
s 1
f 18/27/48 19/28/47 27/38/2 26/37/1
f 28/39/30 27/38/2 19/28/47 20/29/49
f 29/40/31 28/39/30 20/29/49 21/30/51
s 5
f 56/76/53 22/32/56 30/42/18 55/75/17
s 3
f 23/33/58 31/43/37 30/41/40 22/31/59
f 24/34/62 32/44/11 31/43/37 23/33/58
f 25/36/12 32/44/11 24/34/62 17/26/63
s 4
f 34/47/65 33/80/66 2/10/67 10/17/68
f 35/77/69 34/47/65 10/17/68 14/22/70
f 36/50/71 35/77/69 14/22/70 1/9/72
s 6
f 37/90/73 36/91/74 1/1/75 18/27/76
f 38/89/77 37/90/73 18/27/76 26/37/78
f 39/53/79 38/89/77 26/37/78 3/3/80
s 2
f 3/3/81 15/23/82 40/55/83 39/54/84
f 41/56/85 40/55/83 15/23/82 11/18/86
f 42/57/87 41/56/85 11/18/86 4/4/88
s 5
f 29/40/89 43/59/90 42/58/91 4/4/92
f 21/30/93 44/60/94 43/59/90 29/40/89
f 2/2/95 33/46/96 44/60/94 21/30/93
s 4
f 46/63/28 45/61/27 33/45/66 34/78/65
f 48/66/16 47/64/15 35/48/69 36/92/71
s 6
f 49/67/43 48/65/42 36/49/74 37/51/73
f 50/68/22 49/67/43 37/51/73 38/52/77
f 51/69/23 50/68/22 38/52/77 39/87/79
s 2
f 39/88/84 40/86/83 52/71/6 51/70/5
f 53/72/34 52/71/6 40/86/83 41/85/85
f 54/73/35 53/72/34 41/85/85 42/83/87
s 5
f 43/82/90 55/75/17 54/74/20 42/84/91
f 44/79/94 56/76/53 55/75/17 43/82/90
f 44/79/94 33/81/96 45/62/54 56/76/53
s off
f 35/48/97 47/64/98 46/63/99 34/47/100
